<?xml version="1.0" encoding="utf-8"?>
<!-- Generator: Adobe Illustrator 25.4.1, SVG Export Plug-In . SVG Version: 6.00 Build 0)  -->
<svg version="1.1" id="Layer_1" xmlns="http://www.w3.org/2000/svg" xmlns:xlink="http://www.w3.org/1999/xlink" x="0px" y="0px"
	 viewBox="0 0 171.6 120.1" style="enable-background:new 0 0 171.6 120.1;" xml:space="preserve">
<style type="text/css">
	.st0{fill:#7C8989;}
</style>
<path id="Pfad_253" class="st0" d="M145.9,42.9h-4.3L112.4,6.4C109,2.6,104.1,0.3,99,0H41.7c-7,0-13.3,4.3-15.9,10.8L12.9,42.9v0.6
	C5.3,45.4,0,52.3,0,60.1v30c0,2.4,1.9,4.3,4.3,4.3l0,0h12.9c0,14.2,11.5,25.7,25.7,25.7c14.2,0,25.7-11.5,25.7-25.7c0,0,0,0,0,0H103
	c0,14.2,11.5,25.7,25.7,25.7c14.2,0,25.7-11.5,25.7-25.7c0,0,0,0,0,0h12.9c2.4,0,4.3-1.9,4.3-4.3v0V68.6
	C171.6,54.4,160.1,42.9,145.9,42.9C145.9,42.9,145.9,42.9,145.9,42.9z M75.1,12.9H99c1.3,0,2.5,0.6,3.3,1.6l22.7,28.4h-50V12.9z
	 M37.7,15.6c0.6-1.6,2.2-2.7,4-2.7h20.6v30H26.7L37.7,15.6z M42.9,107.3c-7.1,0-12.9-5.8-12.9-12.9c0-7.1,5.8-12.9,12.9-12.9
	c7.1,0,12.9,5.8,12.9,12.9l0,0C55.8,101.5,50,107.3,42.9,107.3C42.9,107.3,42.9,107.3,42.9,107.3L42.9,107.3z M128.7,107.3
	c-7.1,0-12.9-5.8-12.9-12.9c0-7.1,5.8-12.9,12.9-12.9c7.1,0,12.9,5.8,12.9,12.9l0,0C141.6,101.5,135.8,107.3,128.7,107.3
	C128.7,107.3,128.7,107.3,128.7,107.3L128.7,107.3z M158.7,81.5h-7.8c-4.6-7.9-13-12.9-22.2-12.9c-9.2,0-17.6,4.9-22.2,12.9H65.1
	c-4.6-7.9-13-12.8-22.2-12.9c-9.2,0-17.6,4.9-22.2,12.9h-7.8V60.1c0-2.4,1.9-4.3,4.3-4.3h128.7c7.1,0,12.9,5.8,12.9,12.9L158.7,81.5
	z"/>
</svg>
