<?xml version="1.0" encoding="utf-8"?>
<!-- Generator: Adobe Illustrator 25.4.1, SVG Export Plug-In . SVG Version: 6.00 Build 0)  -->
<svg version="1.1" id="Layer_1" xmlns="http://www.w3.org/2000/svg" xmlns:xlink="http://www.w3.org/1999/xlink" x="0px" y="0px"
	 viewBox="0 0 283.5 283.5" style="enable-background:new 0 0 283.5 283.5;" xml:space="preserve">
<style type="text/css">
	.st0{fill:#676C6E;}
</style>
<path id="Pfad_174" class="st0" d="M141.7,0C63.5,0,0,63.5,0,141.7s63.5,141.7,141.7,141.7S283.5,220,283.5,141.7S220,0,141.7,0z
	 M141.7,265.2c-68.2,0-123.4-55.3-123.4-123.4S73.6,18.3,141.7,18.3s123.4,55.3,123.4,123.4S209.9,265.2,141.7,265.2z M222.7,108
	c2.7-2.7,2.7-7,0-9.7c0,0,0,0,0,0l-4.8-4.9c-2.7-2.7-7-2.7-9.7,0c0,0,0,0,0,0l-93.4,92.6l-39.4-39.8c-2.7-2.7-7-2.7-9.7,0
	c0,0,0,0,0,0l-4.9,4.8c-2.7,2.7-2.7,7,0,9.7c0,0,0,0,0,0l49,49.5c2.7,2.7,7,2.7,9.7,0c0,0,0,0,0,0L222.7,108z"/>
</svg>
