<?xml version="1.0" encoding="utf-8"?>
<!-- Generator: Adobe Illustrator 25.4.1, SVG Export Plug-In . SVG Version: 6.00 Build 0)  -->
<svg version="1.1" id="Layer_1" xmlns="http://www.w3.org/2000/svg" xmlns:xlink="http://www.w3.org/1999/xlink" x="0px" y="0px"
	 viewBox="0 0 141.7 141.7" style="enable-background:new 0 0 141.7 141.7;" xml:space="preserve">
<style type="text/css">
	.st0{fill:#676C6E;}
</style>
<path id="Pfad_230" class="st0" d="M97.7,70.9L138,30.6c4.9-5,4.9-13,0-17.9l-9-9c-5-4.9-13-4.9-17.9,0L70.9,44L30.6,3.7
	c-5-4.9-13-4.9-17.9,0l-9,9c-4.9,5-4.9,13,0,17.9L44,70.9L3.7,111.2c-4.9,5-4.9,13,0,17.9l9,9c5,4.9,13,4.9,17.9,0l40.3-40.3
	l40.3,40.3c5,4.9,13,4.9,17.9,0l9-9c4.9-5,4.9-13,0-17.9L97.7,70.9z"/>
</svg>
