<?xml version="1.0" encoding="utf-8"?>
<!-- Generator: Adobe Illustrator 25.4.1, SVG Export Plug-In . SVG Version: 6.00 Build 0)  -->
<svg version="1.1" id="Layer_1" xmlns="http://www.w3.org/2000/svg" xmlns:xlink="http://www.w3.org/1999/xlink" x="0px" y="0px"
	 viewBox="0 0 177 283.5" style="enable-background:new 0 0 177 283.5;" xml:space="preserve">
<style type="text/css">
	.st0{fill:#676C6E;}
</style>
<path id="Pfad_116" class="st0" d="M163.7,88.6H99.9l23.5-71.8c1.9-7.1-2.4-14.4-9.5-16.3c-1.1-0.3-2.2-0.4-3.3-0.4H30.9
	c-6.6,0-12.3,4.9-13.2,11.5L0,144.4c-1,7.3,4.2,14,11.5,14.9c0.6,0.1,1.1,0.1,1.7,0.1h65.7L53.3,267.1c-1.7,7.1,2.7,14.3,9.8,16
	c5.7,1.4,11.7-1.2,14.6-6.3l97.4-168.2c3.7-6.3,1.6-14.4-4.8-18.1C168.4,89.3,166.1,88.6,163.7,88.6z M77.5,241.8l18.5-78.3
	l5.1-21.8h-83L34.8,17.8h69.7L83,83.1l-7.6,23.2H156L77.5,241.8z"/>
</svg>
