<?xml version="1.0" encoding="utf-8"?>
<!-- Generator: Adobe Illustrator 25.4.1, SVG Export Plug-In . SVG Version: 6.00 Build 0)  -->
<svg version="1.1" id="Layer_1" xmlns="http://www.w3.org/2000/svg" xmlns:xlink="http://www.w3.org/1999/xlink" x="0px" y="0px"
	 viewBox="0 0 318.9 283.5" style="enable-background:new 0 0 318.9 283.5;" xml:space="preserve">
<style type="text/css">
	.st0{fill:#676C6E;}
</style>
<path id="Pfad_114" class="st0" d="M0,33.1c0,79.1,38.7,119.5,104.4,125.4l-57.8,51.3c-13.7,12.2-15,33.2-2.8,46.9
	c0.4,0.5,0.9,1,1.3,1.4l15.5,15.5c12.9,13,34,13,46.9,0.1c0.5-0.5,1-1,1.4-1.5l51.6-58.2c53.3,62.8,49.4,58.3,49.9,58.8
	c12.5,13.4,33.6,14.1,46.9,1.5c0.3-0.3,0.5-0.5,0.8-0.8l15.5-15.5c13-13,13-34.1-0.1-47c-0.3-0.3-0.5-0.5-0.8-0.8l-59.9-55.5l4-4.2
	c21.4,7.8,45.5,2.1,61.1-14.5c13.3-15.3,25.6-31.4,37-48.2c11.1-15.8-4-37-20.7-39.1c-2.2-12.4-11.9-22.2-24.3-24.4
	c-1.7-14.7-15-25.3-29.7-23.6c-3.3,0.4-6.5,1.4-9.4,2.9c-16.8,11.4-32.9,23.7-48.2,37c-16.6,15.6-22.3,39.7-14.5,61.1l-6.2,5.7
	L55.8,8.8C42.3-3.6,21.3-2.8,8.8,10.7C3.2,16.8,0,24.8,0,33.1z M210.2,131.2l-10.2,11.5l-24.9-23.1l12.5-11
	c-11-17.9-7.7-41.1,7.7-55.4C210,40.7,225.3,29,241.2,18.2c4.2-3,13.8,6.8,10.7,10.9L207,73.9c-3.9,4.5,6,14.6,10.7,10.9l47.7-42.3
	c4.1-3,13.8,6.6,10.8,10.8L234,101c-3.7,4.7,6.4,14.7,11,10.8L289.8,67c4.1-3.2,14,6.5,10.9,10.7c-10.8,15.9-22.6,31.2-35.1,45.9
	C251.3,139,228.2,142.2,210.2,131.2z M121.1,167.5l27.9,32.8l-53.2,60.2c-5.7,6.4-15.5,7-21.9,1.2c-0.2-0.2-0.4-0.4-0.6-0.6
	l-15.5-15.5c-6-6.1-5.9-16,0.2-22c0.2-0.2,0.3-0.3,0.5-0.5L121.1,167.5z M17.7,33.1c0-8.6,7-15.5,15.6-15.5c3.9,0,7.6,1.5,10.5,4.1
	l217,201.5c6.2,5.9,6.5,15.7,0.6,22c-0.1,0.1-0.2,0.2-0.2,0.3l-15.5,15.5c-6.1,6.1-15.9,6-22,0c-0.1-0.1-0.2-0.2-0.3-0.3l-101-119.1
	C44.9,141.6,17.7,98,17.7,33.1z"/>
</svg>
