<?xml version="1.0" encoding="utf-8"?>
<!-- Generator: Adobe Illustrator 25.4.1, SVG Export Plug-In . SVG Version: 6.00 Build 0)  -->
<svg version="1.1" id="Layer_1" xmlns="http://www.w3.org/2000/svg" xmlns:xlink="http://www.w3.org/1999/xlink" x="0px" y="0px"
	 viewBox="0 0 318.9 283.5" style="enable-background:new 0 0 318.9 283.5;" xml:space="preserve">
<style type="text/css">
	.st0{fill:#676C6E;}
</style>
<path id="Pfad_120" class="st0" d="M317.5,121.8l-34.1-27.4V39.9c0-2.4-2-4.4-4.4-4.4h-8.8c-2.4,0-4.4,2-4.4,4.4v40.2L172,4.4
	c-3.6-2.7-8-4.2-12.5-4.4c-4.5,0.2-8.9,1.8-12.5,4.4L1.4,121.8c-0.8,0.7-1.3,1.8-1.4,2.9c0,0.9,0.3,1.7,0.8,2.4l7.9,9.7
	c0.8,0.8,1.8,1.3,2.9,1.4c0.9,0,1.7-0.3,2.4-0.8L35.4,120v154.6c0,4.9,4,8.9,8.9,8.9h230.3c4.9,0,8.9-4,8.9-8.9l0,0V120l21.5,17.3
	c0.7,0.5,1.5,0.8,2.4,0.8c1.1-0.1,2.2-0.6,2.9-1.4l7.9-9.7c0.5-0.7,0.7-1.5,0.8-2.4C318.8,123.6,318.3,122.6,317.5,121.8z
	 M186,265.8h-53.1v-88.6H186V265.8z M265.8,265.8h-62.1v-97.5c0-4.9-4-8.9-8.9-8.9H124c-4.9,0-8.8,4-8.8,8.9v97.4H53.1V105.7
	l103.9-83.8c0.7-0.5,1.5-0.8,2.3-0.8c0.8,0,1.6,0.3,2.3,0.8l104.1,83.8L265.8,265.8z"/>
</svg>
