<?xml version="1.0" encoding="utf-8"?>
<!-- Generator: Adobe Illustrator 25.4.1, SVG Export Plug-In . SVG Version: 6.00 Build 0)  -->
<svg version="1.1" id="Layer_1" xmlns="http://www.w3.org/2000/svg" xmlns:xlink="http://www.w3.org/1999/xlink" x="0px" y="0px"
	 viewBox="0 0 313.6 283.5" style="enable-background:new 0 0 313.6 283.5;" xml:space="preserve">
<style type="text/css">
	.st0{fill:#676C6E;}
</style>
<path id="Pfad_113" class="st0" d="M80.4,31.5h153c4.4,0,8-3.5,8-7.9c0,0,0,0,0,0l0,0V7.9c0-4.4-3.6-8-8-7.9c0,0,0,0,0,0h-153
	c-4.4,0-8,3.5-8,7.9c0,0,0,0,0,0v15.6C72.4,28,76,31.5,80.4,31.5C80.4,31.5,80.4,31.5,80.4,31.5z M294.1,252H19.5
	c-5.8,0-10.6,4.7-10.6,10.5V273c0.1,5.8,4.8,10.5,10.6,10.5h274.6c5.8,0,10.6-4.7,10.6-10.5v-10.5C304.7,256.7,299.9,252,294.1,252z
	 M294.1,84H19.5c-5.8,0-10.6,4.7-10.6,10.5V105c0.1,5.8,4.8,10.5,10.6,10.5h274.6c5.8,0,10.6-4.7,10.6-10.5V94.5
	C304.7,88.7,299.9,84,294.1,84z M233.4,199.5c4.4,0,8-3.5,8-7.9c0,0,0,0,0,0l0,0v-15.6c0-4.4-3.6-8-8-7.9c0,0,0,0,0,0h-153
	c-4.4,0-8,3.5-8,7.9c0,0,0,0,0,0v15.6c0,4.4,3.6,8,8,7.9c0,0,0,0,0,0L233.4,199.5z"/>
</svg>
