<?xml version="1.0" encoding="utf-8"?>
<!-- Generator: Adobe Illustrator 25.4.1, SVG Export Plug-In . SVG Version: 6.00 Build 0)  -->
<svg version="1.1" id="Layer_1" xmlns="http://www.w3.org/2000/svg" xmlns:xlink="http://www.w3.org/1999/xlink" x="0px" y="0px"
	 viewBox="0 0 230.9 48.7" style="enable-background:new 0 0 230.9 48.7;" xml:space="preserve">
<style type="text/css">
	.st0{fill:#D9D9D9;}
</style>
<path id="Pfad_82" class="st0" d="M18.7,48.5V35.6H5.9v12.9H0V17.6h5.9v12.5h12.8V17.6h5.9v30.9H18.7z"/>
<path id="Pfad_83" class="st0" d="M65.6,48.5L53.4,17.6h6.2l7.6,19.8l7.5-19.8H81L68.7,48.5H65.6z"/>
<path id="Pfad_84" class="st0" d="M84,48.5V17.6h17.2v5.5H89.9v7h11v5.5h-11V43h11.6v5.5L84,48.5z"/>
<path id="Pfad_85" class="st0" d="M188,48.5l-16.4-20.3v20.3h-5.9V17.6h4.6L186.6,38V17.6h5.9v30.9H188z"/>
<path id="Pfad_86" class="st0" d="M203.5,48.5V23.2h-8v-5.6h21.9v5.6h-8v25.3H203.5z"/>
<path id="Pfad_87" class="st0" d="M35.4,45.5c3.6-0.3,13.8-5.6,13.9-5.7l0.4-0.2l0.2,0.4c1.1,3,2.8,7.4,3.3,8.4c1,0,5.1,0,6.6,0
	l-13-30.9l-5.8,0L27.6,48.5l6.5,0l1.1-2.9L35.4,45.5z M37.4,39.8L43.6,25L48,35.2l-0.3,0.2c-0.3,0.2-6,3.6-9.7,4.5
	C37.5,40,37.4,39.8,37.4,39.8L37.4,39.8z"/>
<path id="Pfad_88" class="st0" d="M138.4,45.5c3.6-0.3,13.8-5.6,13.9-5.7l0.4-0.2l0.2,0.4c1.1,3,2.8,7.4,3.3,8.4c1,0,5.1,0,6.6,0
	l-13-30.9l-5.8,0l-13.4,30.9l6.5,0l1.1-2.9L138.4,45.5z M140.4,39.8l6.2-14.8l4.4,10.2l-0.3,0.2c-0.3,0.2-6,3.6-9.7,4.5
	C140.5,40,140.4,39.8,140.4,39.8L140.4,39.8z"/>
<g id="Gruppe_70" transform="translate(107.158 17.54)">
	<path id="Pfad_89" class="st0" d="M23,0.1L9.4,15.3l13.3,15.6h-7.7L5.9,19.9v11.1H0V0.1h5.9v10.6l9.1-10.6L23,0.1z"/>
</g>
<g id="Gruppe_72" transform="translate(129.943)">
	<path id="Pfad_90" class="st0" d="M5.9,10.7c-0.7,0.6-1.6,1-2.5,0.9c-0.9,0-1.8-0.3-2.5-0.9C0.3,10.1,0,9.3,0,8.4h2.1
		c0.1,0.9,0.5,1.4,1.4,1.4c0.4,0,0.7-0.1,1-0.4c0.4-0.5,0.5-1.1,0.4-1.7c0-1.3-0.4-2-1.4-2C2.9,5.7,2.3,6.1,2.1,6.6H0.2V0.3h6.4v1.8
		H2.1v2.4C2.6,4.2,3.2,4,3.8,4c0.8,0,1.5,0.2,2.1,0.8c0.7,0.8,1.1,1.9,1,3C7,8.8,6.7,9.9,5.9,10.7z"/>
	<path id="Pfad_91" class="st0" d="M11.9,11.6c-1.8,0-3.5-1-3.6-3.3h2.1c0,0.8,0.8,1.5,1.6,1.4c0.8,0,1.5-0.7,1.4-1.5
		c0.1-0.8-0.5-1.5-1.3-1.5c-0.1,0-0.2,0-0.3,0h-0.3V4.9h0.3c0.7,0.1,1.3-0.4,1.4-1.1c0-0.1,0-0.2,0-0.3c0-0.8-0.6-1.4-1.3-1.4
		s-1.4,0.6-1.4,1.3l0,0H8.5c0.1-1.9,1.8-3.3,3.7-3.2c1.7,0.1,3.1,1.5,3.2,3.2c0.1,1-0.4,1.9-1.3,2.3c0.9,0.5,1.5,1.5,1.4,2.6
		c0.1,1.8-1.3,3.3-3.1,3.4C12.2,11.7,12,11.6,11.9,11.6z"/>
	<path id="Pfad_92" class="st0" d="M20,5.9c-1.6,0-2.9-1.3-2.9-2.9c0-1.6,1.3-2.9,2.9-2.9c1.6,0,2.9,1.3,2.9,2.9c0,0,0,0,0,0
		C22.9,4.6,21.6,5.9,20,5.9L20,5.9z M20,1.7c-0.7,0-1.2,0.5-1.2,1.2c0,0,0,0,0,0c0,0.7,0.6,1.2,1.2,1.2s1.2-0.6,1.2-1.2
		C21.2,2.3,20.7,1.7,20,1.7C20,1.7,20,1.7,20,1.7z"/>
	<path id="Pfad_93" class="st0" d="M28.1,11.6c-1.8,0.2-3.4-1.2-3.6-3c0-0.1,0-0.3,0-0.4c0-1,0.5-2,1.4-2.5
		c-0.8-0.5-1.3-1.4-1.3-2.3c0.1-1.9,1.8-3.3,3.7-3.2c1.7,0.1,3.1,1.5,3.2,3.2c0,0.9-0.5,1.8-1.3,2.3c0.9,0.5,1.4,1.5,1.4,2.5
		c0,1.8-1.4,3.3-3.2,3.4C28.3,11.6,28.2,11.6,28.1,11.6z M28.1,6.7c-0.9,0-1.6,0.7-1.6,1.6c0,0.9,0.7,1.6,1.6,1.6
		c0.9,0,1.6-0.7,1.6-1.6C29.6,7.4,28.9,6.7,28.1,6.7z M28.1,2.1c-0.8,0-1.4,0.6-1.4,1.4c0,0,0,0,0,0.1C26.6,4.2,27.2,4.9,28,5
		c0.8,0.1,1.4-0.5,1.5-1.3c0-0.1,0-0.1,0-0.2C29.5,2.7,28.9,2.1,28.1,2.1C28.1,2.1,28.1,2.1,28.1,2.1L28.1,2.1z"/>
	<path id="Pfad_94" class="st0" d="M33.4,3.6V0.3h1.9v3.3H33.4z"/>
	<path id="Pfad_95" class="st0" d="M44.4,11.5l-4.5-6.9v6.9h-2.2V0.3h2l4.4,6.9V0.3h2.2v11.2H44.4z"/>
	<path id="Pfad_96" class="st0" d="M55.6,11.6c-1.8,0.2-3.4-1.2-3.6-3c0-0.1,0-0.3,0-0.4c0-1,0.5-2,1.4-2.5
		c-0.8-0.5-1.3-1.4-1.3-2.3c0.1-1.9,1.8-3.3,3.7-3.2c1.7,0.1,3.1,1.5,3.2,3.2c0,0.9-0.5,1.8-1.3,2.3c0.9,0.5,1.4,1.5,1.4,2.5
		c0,1.8-1.4,3.3-3.2,3.4C55.8,11.6,55.7,11.6,55.6,11.6z M55.6,6.7c-0.9,0-1.6,0.7-1.6,1.5c0,0.9,0.7,1.6,1.5,1.6
		c0.9,0,1.6-0.7,1.6-1.5C57.1,7.4,56.4,6.7,55.6,6.7C55.6,6.7,55.6,6.7,55.6,6.7z M55.6,2.1c-0.8,0-1.4,0.6-1.4,1.4c0,0,0,0,0,0.1
		c-0.1,0.8,0.5,1.4,1.3,1.5C56.2,5,56.9,4.5,57,3.7c0-0.1,0-0.1,0-0.2C57,2.7,56.4,2.1,55.6,2.1C55.6,2.1,55.6,2.1,55.6,2.1
		L55.6,2.1z"/>
	<path id="Pfad_97" class="st0" d="M63.6,5.9c-1.6,0-2.9-1.3-2.9-2.9c0-1.6,1.3-2.9,2.9-2.9c1.6,0,2.9,1.3,2.9,2.9c0,0,0,0,0,0
		C66.5,4.6,65.2,5.9,63.6,5.9C63.6,5.9,63.6,5.9,63.6,5.9z M63.6,1.7c-0.7,0-1.2,0.5-1.2,1.2c0,0,0,0,0,0c0,0.7,0.5,1.3,1.2,1.3
		c0.7,0,1.3-0.5,1.3-1.2c0,0,0,0,0-0.1C64.9,2.3,64.3,1.7,63.6,1.7C63.6,1.7,63.6,1.7,63.6,1.7z"/>
	<path id="Pfad_98" class="st0" d="M71.3,11.5v-9l-2.3,2V2.3l2.3-2h2.1v11.2H71.3z"/>
	<path id="Pfad_99" class="st0" d="M80.2,11.6c-1.8,0-3.5-1-3.6-3.3h2.1c0,0.8,0.8,1.5,1.6,1.4c0.8,0,1.5-0.7,1.4-1.5
		c0.1-0.8-0.5-1.5-1.3-1.5c-0.1,0-0.2,0-0.2,0h-0.3V4.9h0.3c0.7,0.1,1.3-0.4,1.4-1.1c0-0.1,0-0.2,0-0.3c0-0.8-0.5-1.4-1.3-1.5
		s-1.4,0.5-1.5,1.3c0,0,0,0,0,0.1h-2.1c0.1-1.9,1.8-3.3,3.7-3.2c1.7,0.1,3.1,1.5,3.2,3.2c0.1,1-0.4,1.9-1.3,2.3
		c1,0.5,1.5,1.5,1.5,2.6c0.1,1.8-1.3,3.3-3.1,3.4C80.5,11.7,80.3,11.6,80.2,11.6z"/>
	<path id="Pfad_100" class="st0" d="M85.6,3.6V0.3h1.9v3.3H85.6z"/>
	<g id="Gruppe_71" transform="translate(89.339 0.238)">
		<path id="Pfad_101" class="st0" d="M0,5.7c-0.1-3.2,2.4-5.9,5.7-6c3.2-0.1,5.9,2.4,6,5.7c0.1,3.2-2.4,5.9-5.7,6
			c-0.1,0-0.1,0-0.2,0C2.7,11.5,0.1,9,0,5.9C0,5.8,0,5.8,0,5.7z M2.2,5.7c0,2,1.6,3.7,3.6,3.7s3.7-1.6,3.7-3.6c0-2-1.6-3.7-3.6-3.7
			c0,0,0,0,0,0C3.8,2.1,2.2,3.7,2.2,5.7z"/>
	</g>
</g>
</svg>
