<?xml version="1.0" encoding="utf-8"?>
<!-- Generator: Adobe Illustrator 25.4.1, SVG Export Plug-In . SVG Version: 6.00 Build 0)  -->
<svg version="1.1" id="Layer_1" xmlns="http://www.w3.org/2000/svg" xmlns:xlink="http://www.w3.org/1999/xlink" x="0px" y="0px"
	 viewBox="0 0 283.4 283.5" style="enable-background:new 0 0 283.4 283.5;" xml:space="preserve">
<style type="text/css">
	.st0{fill:#676C6E;}
</style>
<path id="Pfad_118" class="st0" d="M278,128.8L241.2,92c-7.1-7.1-18.7-7.1-25.8,0c-3.4,3.4-5.3,8-5.3,12.9v28h-59.5V73.2h28
	c10.1,0,18.3-8.2,18.2-18.3c0-4.8-1.9-9.5-5.3-12.9L154.6,5.4c-7.1-7.1-18.6-7.1-25.8,0c0,0,0,0,0,0L92,42.2
	c-7.1,7.2-7.1,18.7,0.1,25.8c3.4,3.4,8,5.3,12.8,5.3h28v59.5H73.3v-28c0-10.1-8.2-18.3-18.3-18.2c-4.8,0-9.5,1.9-12.9,5.3L5.4,128.8
	c-7.1,7.1-7.1,18.6,0,25.8c0,0,0,0,0,0l36.8,36.8c7.2,7.1,18.7,7.1,25.8-0.1c3.4-3.4,5.3-8,5.3-12.8v-28h59.5v59.6h-28
	c-10.1,0-18.2,8.2-18.2,18.3c0,4.8,1.9,9.5,5.3,12.9l36.8,36.8c7.1,7.1,18.6,7.1,25.8,0c0,0,0,0,0,0l36.8-36.8
	c7.1-7.2,7.1-18.7-0.1-25.8c-3.4-3.4-8-5.3-12.8-5.3h-28v-59.6h59.6v28c0,10.1,8.2,18.3,18.3,18.2c4.8,0,9.5-1.9,12.9-5.3l36.8-36.8
	C285.2,147.5,285.2,135.9,278,128.8z M57.3,178.5c0,1.3-1,2.3-2.3,2.3c-0.6,0-1.2-0.2-1.6-0.7l-36.8-36.8c-0.9-0.9-0.9-2.3,0-3.2
	l36.8-36.8c0.9-0.9,2.3-0.9,3.2,0c0.4,0.4,0.6,1,0.7,1.6L57.3,178.5z M178.5,226c1.3,0,2.3,1,2.3,2.3c0,0.6-0.2,1.2-0.7,1.6
	l-36.8,36.8c-0.9,0.9-2.3,0.9-3.2,0L103.3,230c-0.9-0.9-0.9-2.3,0-3.2c0.4-0.4,1-0.6,1.6-0.7L178.5,226z M104.9,57.4
	c-1.3,0-2.3-1-2.3-2.3c0-0.6,0.2-1.2,0.7-1.6l36.8-36.9c0.9-0.9,2.3-0.9,3.2,0l36.8,36.8c0.9,0.9,0.9,2.3,0,3.2
	c-0.4,0.4-1,0.6-1.6,0.7L104.9,57.4z M266.8,143.3l-36.8,36.8c-0.9,0.9-2.3,0.9-3.2,0c-0.4-0.4-0.6-1-0.7-1.6v-73.6
	c0-1.3,1-2.3,2.3-2.3c0.6,0,1.2,0.2,1.6,0.7l36.8,36.8c0.9,0.8,0.9,2.1,0.2,3C266.9,143.2,266.8,143.3,266.8,143.3z"/>
</svg>
