<?xml version="1.0" encoding="utf-8"?>
<!-- Generator: Adobe Illustrator 25.4.1, SVG Export Plug-In . SVG Version: 6.00 Build 0)  -->
<svg version="1.1" id="Layer_1" xmlns="http://www.w3.org/2000/svg" xmlns:xlink="http://www.w3.org/1999/xlink" x="0px" y="0px"
	 viewBox="0 0 283.5 283.5" style="enable-background:new 0 0 283.5 283.5;" xml:space="preserve">
<style type="text/css">
	.st0{fill:#7C8989;}
</style>
<path id="Pfad_165" class="st0" d="M88.6,82c0,3.7,3,6.6,6.6,6.6h22.2c3.7,0,6.6-3,6.6-6.6V59.9c0-3.7-3-6.6-6.6-6.6H95.2
	c-3.7,0-6.6,3-6.6,6.6L88.6,82z M166.1,88.6h22.2c3.7,0,6.6-3,6.6-6.6V59.9c0-3.7-3-6.6-6.6-6.6H166c-3.7,0-6.6,3-6.6,6.6V82
	C159.4,85.6,162.4,88.6,166.1,88.6L166.1,88.6z M95.2,141.8h22.2c3.7,0,6.6-3,6.6-6.6V113c0-3.7-3-6.7-6.6-6.7c0,0,0,0,0,0H95.2
	c-3.7,0-6.6,3-6.6,6.6v22.2C88.6,138.8,91.6,141.7,95.2,141.8L95.2,141.8z M166.1,141.8h22.2c3.7,0,6.6-3,6.6-6.6V113
	c0-3.7-3-6.6-6.6-6.6H166c-3.7,0-6.6,3-6.6,6.6v22.2C159.4,138.8,162.4,141.7,166.1,141.8L166.1,141.8z M124,188.2v-22.1
	c0-3.6-2.9-6.6-6.6-6.6H95.2c-3.7,0-6.6,3-6.6,6.6v22.1c0,3.7,3,6.6,6.6,6.6h22.2C121.1,194.8,124,191.9,124,188.2z M166,194.9h22.2
	c3.7,0,6.6-3,6.6-6.6v-22.2c0-3.7-3-6.6-6.6-6.6H166c-3.7,0-6.6,3-6.6,6.6v22.1C159.4,191.9,162.4,194.9,166,194.9z M265.7,263.5
	c0-3.6-2.9-6.6-6.6-6.6h-10.8V13.3C248.4,6,242.5,0,235.1,0c0,0,0,0-0.1,0H48.4c-7.3,0-13.3,5.9-13.3,13.2c0,0,0,0,0,0.1v243.6H24.4
	c-3.7,0-6.6,3-6.6,6.6v19.9h248V263.5z M61.7,256.3L62,26.6l159.7,0.6v229.2h-62.3v-37.1c0-3.7-3-6.6-6.6-6.6h-22.1
	c-3.7,0-6.6,3-6.6,6.6v37.1H61.7z"/>
</svg>
