<?xml version="1.0" encoding="utf-8"?>
<!-- Generator: Adobe Illustrator 25.4.1, SVG Export Plug-In . SVG Version: 6.00 Build 0)  -->
<svg version="1.1" id="Layer_1" xmlns="http://www.w3.org/2000/svg" xmlns:xlink="http://www.w3.org/1999/xlink" x="0px" y="0px"
	 viewBox="0 0 283.5 283.5" style="enable-background:new 0 0 283.5 283.5;" xml:space="preserve">
<style type="text/css">
	.st0{fill:#7C8989;}
</style>
<path id="Categories" class="st0" d="M198.8,283.5c-23.9-0.5-43-20-42.9-43.9v-42.8c-0.2-23.9,19-43.5,42.9-43.8h42
	c23.9,0.4,43.1,19.9,43.1,43.8v42.8c0,23.9-19.1,43.4-43,43.9H198.8z M178.9,196.7v42.8c0,5.4,2,10.5,5.8,14.4
	c3.7,3.8,8.7,5.9,13.9,5.9h42.2c5.3,0,10.3-2.1,13.9-5.9c3.7-3.8,5.8-9,5.8-14.4v-42.8c0-5.4-2.1-10.5-5.8-14.3
	c-3.7-3.8-8.8-5.9-14-5.9h-42C187.7,176.6,178.8,185.7,178.9,196.7L178.9,196.7z M43.4,283.3c-23.8-0.7-42.8-20.1-43-43.9v-42.7
	c0-11.6,4.5-22.7,12.6-31c8-8.2,19-12.8,30.4-12.8h17.2c4.4-0.5,8.7,1.7,11,5.5c2.3,3.9,2.3,8.7,0,12.5c-2.3,3.8-6.6,5.9-11,5.5
	H43.4c-11.1,0.1-20,9.2-20,20.3V239c0.2,11,9,20,20,20.3h42.2c5.3,0,10.4-2.1,14.2-5.9c3.8-3.8,5.9-9,5.9-14.4v-63.6
	c-0.9-4.7,1.2-9.5,5.2-12.1c4-2.6,9.1-2.4,13,0.4c3.9,2.9,5.6,7.8,4.5,12.4v63.3c0.3,24-19,43.7-43,43.9c0,0,0,0,0,0L43.4,283.3
	L43.4,283.3z M224,130.9c-6.5-0.8-11.1-6.7-10.3-13.2c0.7-5.4,4.9-9.6,10.3-10.3h16.8c5.4,0,10.5-2.2,14.2-6.1
	c3.7-3.9,5.8-9.2,5.7-14.6V43.9c0-11-8.8-20-19.8-20.3h-42c-11.1,0.1-20,9.2-19.8,20.3V108c-0.1,6.4-5.4,11.6-11.8,11.6
	c-3.1-0.1-6-1.4-8.1-3.7c-2.1-2.3-3.2-5.4-3.1-8.5V43.9c-0.1-11.6,4.4-22.7,12.5-31c8-8.2,18.9-12.9,30.4-12.9h42
	c23.7,0.8,42.6,20.2,42.9,43.9v42.7c0.2,11.6-4.2,22.8-12.2,31.2c-7.9,8.2-18.7,13-30.1,13.1L224,130.9z M85.4,130.5h-42
	c-23.9-0.4-43.1-19.9-43-43.8V43.9C0.3,20,19.5,0.5,43.4,0h42c23.9,0.4,43.1,20,43,43.9v42.8c0,11.6-4.5,22.7-12.6,31
	C107.8,125.9,96.9,130.5,85.4,130.5L85.4,130.5z M29.1,29.4c-3.8,3.9-6,9.1-6,14.5v42.8c-0.1,5.5,2,10.8,5.8,14.7
	c3.7,3.8,8.7,5.9,14,5.9h42.4c5.4-0.1,10.5-2.3,14.2-6.1c3.7-3.9,5.8-9.1,5.7-14.6V43.9c0-11-8.8-20.1-19.8-20.3H42.9
	C37.7,23.6,32.8,25.7,29.1,29.4L29.1,29.4z"/>
</svg>
