<?xml version="1.0" encoding="utf-8"?>
<!-- Generator: Adobe Illustrator 25.4.1, SVG Export Plug-In . SVG Version: 6.00 Build 0)  -->
<svg version="1.1" id="Layer_1" xmlns="http://www.w3.org/2000/svg" xmlns:xlink="http://www.w3.org/1999/xlink" x="0px" y="0px"
	 viewBox="0 0 184.8 120.1" style="enable-background:new 0 0 184.8 120.1;" xml:space="preserve">
<style type="text/css">
	.st0{fill:#7C8989;}
</style>
<path id="Pfad_251" class="st0" d="M50.8,73.9c-12.8,0-23.1,10.3-23.1,23.1c0,12.8,10.3,23.1,23.1,23.1c12.8,0,23.1-10.3,23.1-23.1
	C73.9,84.3,63.6,73.9,50.8,73.9z M50.8,106.3c-5.1,0-9.2-4.1-9.2-9.2c0-5.1,4.1-9.2,9.2-9.2c5.1,0,9.2,4.1,9.2,9.2
	C60.1,102.1,55.9,106.3,50.8,106.3z M180.2,78.5h-23.1V9.2c0-5.1-4.1-9.2-9.2-9.2H9.2C4.1,0,0,4.1,0,9.2v78.5c0,2.6,2.1,4.6,4.6,4.6
	h10.6c2.2-0.1,4-1.6,4.5-3.7c3.7-14.1,16.5-24,31.1-24c14.6,0,27.4,9.9,31.1,24c0.5,2.1,2.3,3.6,4.5,3.7h93.7c2.6,0,4.6-2.1,4.6-4.6
	v0v-4.6C184.8,80.6,182.7,78.5,180.2,78.5C180.2,78.5,180.2,78.5,180.2,78.5z M143.2,78.5H127V27.7c0-2.6-2.1-4.6-4.6-4.6l0,0h-4.6
	c-2.6,0-4.6,2.1-4.6,4.6v50.8H99.3V27.7c0-2.6-2.1-4.6-4.6-4.6c0,0,0,0,0,0h-4.6c-2.6,0-4.6,2.1-4.6,4.6l0,0v39.2
	c-4-4.4-8.7-8.1-13.9-11V27.7c0-2.6-2.1-4.6-4.6-4.6l0,0h-4.6c-2.6,0-4.6,2.1-4.6,4.6l0,0v23.6c-2.2-0.3-4.5-0.5-6.7-0.5
	c-2.4,0-4.8,0.2-7.1,0.6V27.7c0-2.6-2.1-4.6-4.6-4.6l0,0h-4.6c-2.6,0-4.6,2.1-4.6,4.6l0,0v28.1c-6.2,3.5-11.7,8.2-16.2,13.8V13.9
	h129.4V78.5z"/>
</svg>
